# xmcd
#
# Track frame offsets:
# 150
# 20011
# 32216
# 47375
# 64359
# 100590
# 123763
# 149872
#
# Disc length: 2563 seconds
#
#
# Revision: 0
# Processed by: cddbd v1.5.1PL2 Copyright (c) Steve Scherf et al.
# Submitted via: FreeRIP 2.944 
#
DISCID=6e0a0108
DTITLE=Bodie Jarman - Bodie Jarman
DYEAR=2005
DGENRE=Acoustic
TTITLE0=Procrastination
TTITLE1=Sturdy
TTITLE2=?
TTITLE3=Rain On The River
TTITLE4=Blues Jam - Lost Child
TTITLE5=4 Leaf Clover
TTITLE6=#63
TTITLE7=Steam Rollin' Blues (with friends)
EXTD=
EXTT0=
EXTT1=
EXTT2=
EXTT3=
EXTT4=
EXTT5=
EXTT6=
EXTT7=
PLAYORDER=
